<svg xmlns="http://www.w3.org/2000/svg" x="0px" y="0px"
width="24" height="24"
viewBox="0 0 172 172"
style=" fill:#000000;"><g fill="none" fill-rule="nonzero" stroke="none" stroke-width="1" stroke-linecap="butt" stroke-linejoin="miter" stroke-miterlimit="10" stroke-dasharray="" stroke-dashoffset="0" font-family="none" font-weight="none" font-size="none" text-anchor="none" style="mix-blend-mode: normal"><path d="M0,172v-172h172v172z" fill="none"></path><g fill="#ffffff"><path d="M121.69336,10.68001c-1.86189,0.05548 -3.62905,0.83363 -4.92708,2.1696l-68.08333,68.08334c-2.79764,2.7988 -2.79764,7.33531 0,10.13411l68.08333,68.08333c1.79752,1.87223 4.46675,2.62641 6.97825,1.97168c2.5115,-0.65472 4.47282,-2.61605 5.12755,-5.12755c0.65472,-2.5115 -0.09946,-5.18073 -1.97168,-6.97825l-63.01627,-63.01628l63.01627,-63.01628c2.11962,-2.06035 2.75694,-5.21064 1.60486,-7.93287c-1.15207,-2.72224 -3.85719,-4.45797 -6.81189,-4.37084z"></path></g></g></svg>