<svg xmlns="http://www.w3.org/2000/svg" x="0px" y="0px"
width="48" height="48"
viewBox="0 0 172 172"
style=" fill:#000000;"><g fill="none" fill-rule="nonzero" stroke="none" stroke-width="1" stroke-linecap="butt" stroke-linejoin="miter" stroke-miterlimit="10" stroke-dasharray="" stroke-dashoffset="0" font-family="none" font-weight="none" font-size="none" text-anchor="none" style="mix-blend-mode: normal"><path d="M0,172v-172h172v172z" fill="none"></path><g fill="#ffffff"><path d="M12.54167,57.33333c-1.93842,-0.02741 -3.74144,0.99102 -4.71865,2.66532c-0.97721,1.6743 -0.97721,3.74507 0,5.41937c0.97721,1.6743 2.78023,2.69273 4.71865,2.66532h146.91667c1.93842,0.02741 3.74144,-0.99102 4.71865,-2.66532c0.97721,-1.6743 0.97721,-3.74507 0,-5.41937c-0.97721,-1.6743 -2.78023,-2.69273 -4.71865,-2.66532zM12.54167,103.91667c-1.93842,-0.02741 -3.74144,0.99102 -4.71865,2.66532c-0.97721,1.6743 -0.97721,3.74507 0,5.41937c0.97721,1.6743 2.78023,2.69273 4.71865,2.66532h146.91667c1.93842,0.02741 3.74144,-0.99102 4.71865,-2.66532c0.97721,-1.6743 0.97721,-3.74507 0,-5.41937c-0.97721,-1.6743 -2.78023,-2.69273 -4.71865,-2.66532z"></path></g></g></svg>