<?xml version="1.0"?>
<svg xmlns="http://www.w3.org/2000/svg" xmlns:xlink="http://www.w3.org/1999/xlink" xmlns:svgjs="http://svgjs.com/svgjs" version="1.1" width="512" height="512" x="0" y="0" viewBox="0 0 504.698 504.698" style="enable-background:new 0 0 512 512" xml:space="preserve"><g><g xmlns="http://www.w3.org/2000/svg" id="XMLID_217_"><path id="XMLID_865_" d="m440.947 7.257c-61.167 6.963-118.827 34.771-162.359 78.303l-165.064 165.065c-29.22 29.22-53.389 62.786-71.834 99.765s-30.722 76.476-36.488 117.396l-5.202 36.912 36.913-5.201c40.919-5.767 80.417-18.043 117.396-36.488s70.544-42.614 99.765-71.834l165.064-165.065c43.532-43.532 71.34-101.192 78.303-162.358l7.257-63.752z" fill="#ff9f00" data-original="#ff9f00" style=""/><path id="XMLID_1630_" d="m36.913 499.497c40.92-5.767 80.417-18.043 117.396-36.488s70.544-42.614 99.765-71.834l165.064-165.065c43.532-43.532 71.34-101.192 78.303-162.358l7.257-63.752-504.698 504.698z" fill="#ff8700" data-original="#ff8700" style=""/><path id="XMLID_873_" d="m382.742 105.1c-34.705 4.643-65.47 19.518-88.968 43.017l-122.896 122.894c-19.348 19.348-34.792 42.108-45.904 67.647-4.842 11.128-8.856 22.811-11.93 34.724l-6.356 24.629 24.629-6.356c11.913-3.074 23.596-7.088 34.724-11.93 25.54-11.111 48.299-26.556 67.646-45.904l122.895-122.895c23.499-23.499 38.374-54.263 43.017-88.968l2.604-19.46z" fill="#ffe470" data-original="#ffe470" style=""/><path id="XMLID_1638_" d="m131.317 391.654c11.913-3.074 23.596-7.088 34.724-11.93 25.54-11.111 48.299-26.556 67.646-45.904l122.895-122.895c23.499-23.499 38.374-54.263 43.017-88.968l2.604-19.46-295.515 295.513z" fill="#ffc473" data-original="#ffc473" style=""/><path id="XMLID_869_" d="m316.102 45.355h30v388.821h-30z" fill="#00cef5" transform="matrix(.706 -.708 .708 .706 -72.49 304.803)" data-original="#00cef5" style=""/><path id="XMLID_714_" d="m287.373 217.325 170.759 170.376 21.186-21.241-170.731-170.348z" fill="#3baaff" data-original="#3baaff" style=""/><path id="XMLID_871_" d="m168.981 151.494-75.32-75.321 3.957-11.366c9.554-27.442 30.773-48.662 58.216-58.216l11.366-3.957 75.321 75.321-4.444 69.094z" fill="#ffc473" data-original="#ffc473" style=""/><path id="XMLID_870_" d="m163.384 61.353h30v382.007h-30z" fill="#00cef5" transform="matrix(.707 -.707 .707 .707 -126.196 200.05)" data-original="#00cef5" style=""/><path id="XMLID_716_" d="m249.403 269.022h30v138.708h-30z" fill="#3baaff" transform="matrix(.707 -.707 .707 .707 -161.826 286.069)" data-original="#3baaff" style=""/><path id="XMLID_866_" d="m346.866 494.378-75.321-75.321 4.445-69.094 69.094-4.445 75.321 75.321-3.957 11.366c-9.554 27.442-30.772 48.662-58.216 58.216z" fill="#ff9f00" data-original="#ff9f00" style=""/></g></g></svg>
