<?xml version="1.0" encoding="iso-8859-1"?>
<!-- Generator: Adobe Illustrator 19.0.0, SVG Export Plug-In . SVG Version: 6.00 Build 0)  -->
<svg version="1.1" id="Capa_1" xmlns="http://www.w3.org/2000/svg" xmlns:xlink="http://www.w3.org/1999/xlink" x="0px" y="0px"
	 viewBox="0 0 512 512" style="enable-background:new 0 0 512 512;" xml:space="preserve">
<path style="fill:#E5E5E5;" d="M331,407c0,41.4-33.6,75-75,75s-75-33.6-75-75c0-8.401,6.599-15,15-15s15,6.599,15,15
	c0,24.901,20.099,45,45,45s45-20.099,45-45c0-8.401,6.599-15,15-15S331,398.599,331,407z"/>
<path style="fill:#C8C6CD;" d="M331,407c0,41.4-33.6,75-75,75v-30c24.901,0,45-20.099,45-45c0-8.401,6.599-15,15-15
	S331,398.599,331,407z"/>
<g>
	<path style="fill:#57555C;" d="M136,0h-30c-8.284,0-15,6.716-15,15v347l15,30h30l15-30V15C151,6.716,144.284,0,136,0z"/>
	<path style="fill:#57555C;" d="M325.6,283.599C314.2,312.4,286.901,331,256,331s-58.2-18.6-69.6-47.401L256,181L325.6,283.599z"/>
</g>
<path style="fill:#3C3A41;" d="M256,331V181l69.6,102.599C314.2,312.4,286.901,331,256,331z"/>
<path style="fill:#FE8821;" d="M361,61H151C84.699,61,31,114.699,31,181s53.699,120,120,120h45c5.7,0,10.8-3.3,13.5-8.401L235.3,241
	h41.4l25.8,51.599C305.2,297.7,310.3,301,316,301h45c66.301,0,120-53.699,120-120S427.301,61,361,61z"/>
<path style="fill:#E5741A;" d="M481,181c0,66.301-53.699,120-120,120h-45c-5.7,0-10.8-3.3-13.5-8.401L276.7,241H256V61h105
	C427.301,61,481,114.699,481,181z"/>
<path style="fill:#E5E5E5;" d="M361,91H151c-49.501,0-90,40.499-90,90s40.499,90,90,90h35.7l25.8-51.599
	C215.2,214.3,220.3,211,226,211h60c5.7,0,10.8,3.3,13.5,8.401L325.3,271H361c49.501,0,90-40.499,90-90S410.501,91,361,91z"/>
<path style="fill:#C8C6CD;" d="M451,181c0,49.501-40.499,90-90,90h-35.7l-25.8-51.599C296.8,214.3,291.7,211,286,211h-30V91h105
	C410.501,91,451,131.499,451,181z"/>
<g>
	<path style="fill:#D9D9D9;" d="M196,181c-3.838,0-7.676-1.465-10.605-4.395l-30-30c-5.859-5.859-5.859-15.352,0-21.211
		s15.352-5.859,21.211,0l30,30c5.859,5.859,5.859,15.352,0,21.211C203.676,179.535,199.838,181,196,181z"/>
	<path style="fill:#D9D9D9;" d="M166,241c-3.838,0-7.676-1.465-10.605-4.395l-60-60c-5.859-5.859-5.859-15.352,0-21.211
		s15.352-5.859,21.211,0l60,60c5.859,5.859,5.859,15.352,0,21.211C173.676,239.535,169.838,241,166,241z"/>
</g>
<path style="fill:#FE8821;" d="M331,482c0,16.5-13.5,30-30,30H196c-57.9,0-105-47.1-105-105v-45h60v45c0,24.901,20.099,45,45,45h105
	C317.5,452,331,465.5,331,482z"/>
<path style="fill:#E5741A;" d="M331,482c0,16.5-13.5,30-30,30h-45v-60h45C317.5,452,331,465.5,331,482z"/>
<g>
</g>
<g>
</g>
<g>
</g>
<g>
</g>
<g>
</g>
<g>
</g>
<g>
</g>
<g>
</g>
<g>
</g>
<g>
</g>
<g>
</g>
<g>
</g>
<g>
</g>
<g>
</g>
<g>
</g>
</svg>
